<svg xmlns="http://www.w3.org/2000/svg" version="1.1" height="201px" width="791px" viewBox="-10 -10 811 221" content="&lt;mxGraphModel dx=&quot;1023&quot; dy=&quot;153&quot; grid=&quot;1&quot; gridSize=&quot;10&quot; guides=&quot;1&quot; tooltips=&quot;1&quot; connect=&quot;1&quot; arrows=&quot;1&quot; fold=&quot;1&quot; page=&quot;0&quot; pageScale=&quot;1&quot; pageWidth=&quot;850&quot; pageHeight=&quot;1100&quot; math=&quot;0&quot; shadow=&quot;0&quot;&gt;&lt;root&gt;&lt;mxCell id=&quot;0&quot;/&gt;&lt;mxCell id=&quot;1&quot; parent=&quot;0&quot;/&gt;&lt;mxCell id=&quot;2&quot; value=&quot;&quot; style=&quot;whiteSpace=wrap;html=1;&quot; vertex=&quot;1&quot; parent=&quot;1&quot;&gt;&lt;mxGeometry x=&quot;-160&quot; y=&quot;90&quot; width=&quot;120&quot; height=&quot;60&quot; as=&quot;geometry&quot;/&gt;&lt;/mxCell&gt;&lt;mxCell id=&quot;3&quot; value=&quot;&quot; style=&quot;ellipse;whiteSpace=wrap;html=1;&quot; vertex=&quot;1&quot; parent=&quot;1&quot;&gt;&lt;mxGeometry x=&quot;550&quot; y=&quot;210&quot; width=&quot;80&quot; height=&quot;80&quot; as=&quot;geometry&quot;/&gt;&lt;/mxCell&gt;&lt;/root&gt;&lt;/mxGraphModel&gt;"><style type="text/css"></style><path d="M 2.09 -0.96 L 119.66 1.22 L 122.26 59.24 L 1.44 59.26" fill="#ffffff" stroke="none" pointer-events="none"/><path d="M 0.5 0.5 C 25.98 -1.92 46.69 -1.78 120.5 0.5 M 0.5 0.5 C 28.17 0.96 55.57 1.64 120.5 0.5 M 120.5 0.5 C 119.98 17.24 119.69 31.98 120.5 60.5 M 120.5 0.5 C 120.48 24.61 119.15 48.74 120.5 60.5 M 120.5 60.5 C 87.23 61.54 53.49 58.95 0.5 60.5 M 120.5 60.5 C 82.47 59.94 45.74 59.82 0.5 60.5 M 0.5 60.5 C -1.52 37.02 1.46 11.73 0.5 0.5 M 0.5 60.5 C 0.56 44.48 0.05 27.2 0.5 0.5" fill="none" stroke="#000000" stroke-linejoin="round" stroke-linecap="round" stroke-miterlimit="10" pointer-events="none"/><path d="M 748.64 119.04 C 755.65 118.11 764.17 121.13 770.21 125.29 C 776.25 129.46 782.12 136.66 784.88 144.03 C 787.65 151.4 788.38 161.37 786.79 169.52 C 785.2 177.67 780.65 187.59 775.35 192.93 C 770.04 198.28 762.39 200.82 754.95 201.59 C 747.52 202.36 737.4 201.72 730.73 197.57 C 724.06 193.43 717.86 184.41 714.96 176.72 C 712.05 169.04 711.78 159.31 713.29 151.45 C 714.8 143.6 718.71 135.1 724.01 129.58 C 729.31 124.06 739.85 119.95 745.11 118.32 C 750.37 116.7 752.85 119.49 755.57 119.85 C 758.3 120.21 761.51 119.95 761.45 120.49 M 747.72 119.51 C 754.86 118.1 764.76 119.31 770.83 123.34 C 776.9 127.36 781.4 135.93 784.13 143.66 C 786.87 151.39 788.5 161.95 787.24 169.72 C 785.99 177.49 782.11 184.84 776.6 190.3 C 771.1 195.76 761.76 201.03 754.23 202.47 C 746.7 203.9 737.77 203.05 731.44 198.9 C 725.11 194.76 719.41 185.35 716.26 177.6 C 713.1 169.85 711.4 160.08 712.5 152.39 C 713.6 144.7 717.48 137.03 722.86 131.47 C 728.24 125.91 740.7 121.11 744.78 119.02 C 748.85 116.93 747 118.77 747.32 118.91 C 747.63 119.05 746.95 119.26 746.67 119.88" fill="#ffffff" stroke="none" pointer-events="none"/><path d="M 760.29 120.08 C 767.31 121.25 775.54 126.65 780.31 132.97 C 785.09 139.3 788.46 149.79 788.93 158.03 C 789.41 166.28 787.04 175.76 783.16 182.46 C 779.28 189.17 772.62 195.12 765.68 198.27 C 758.73 201.42 748.96 203.16 741.49 201.35 C 734.01 199.54 725.52 193.67 720.84 187.41 C 716.16 181.14 714.06 171.82 713.39 163.76 C 712.72 155.7 713.22 146.09 716.84 139.05 C 720.45 132 728.15 124.85 735.06 121.5 C 741.96 118.14 753.29 118.96 758.26 118.92 C 763.24 118.89 763.26 120.48 764.92 121.29 C 766.58 122.09 768.67 122.91 768.22 123.74 M 762.01 120.86 C 769.25 122.35 776.83 126.96 781.33 133.17 C 785.83 139.39 788.84 149.7 789 158.13 C 789.16 166.56 786.32 176.81 782.27 183.74 C 778.22 190.66 771.46 196.97 764.7 199.69 C 757.93 202.4 749.08 202.03 741.65 200.01 C 734.22 197.99 724.77 193.49 720.13 187.54 C 715.49 181.59 714.07 172.6 713.82 164.3 C 713.57 156 715.13 144.69 718.64 137.74 C 722.14 130.79 728.26 125.8 734.85 122.58 C 741.44 119.36 753.89 118.66 758.16 118.42 C 762.42 118.17 759.97 120.59 760.43 121.11 C 760.89 121.63 761.05 120.9 760.93 121.52" fill="none" stroke="#000000" stroke-linejoin="round" stroke-linecap="round" stroke-miterlimit="10" pointer-events="none"/></svg>