<svg version="1.1" xmlns="http://www.w3.org/2000/svg" viewBox="0 0 21.3145751953125 23.943603515625" width="21.3145751953125" height="23.943603515625" filter="invert(93%) hue-rotate(180deg)">
  <!-- svg-source:excalidraw -->
  
  <defs>
    <style>
      @font-face {
        font-family: "Virgil";
        src: url("https://unpkg.com/@zsviczian/excalidraw@0.12.0-obsidian-8/dist/excalidraw-assets/Virgil.woff2");
      }
      @font-face {
        font-family: "Cascadia";
        src: url("https://unpkg.com/@zsviczian/excalidraw@0.12.0-obsidian-8/dist/excalidraw-assets/Cascadia.woff2");
      }
    </style>
  </defs>
  <rect x="0" y="0" width="21.3145751953125" height="23.943603515625" fill="#ffffff"/><g transform="translate(11.3145751953125 13.943603515625) rotate(0 -0.65728759765625 -1.9718017578125)" stroke="none"><path fill="#364fc7" d="M -0.68,0.22 Q -0.68,0.22 -0.35,-0.33 -0.01,-0.89 0.04,-0.81 0.11,-0.73 0.15,-0.63 0.18,-0.53 0.18,-0.42 0.19,-0.32 0.16,-0.22 0.13,-0.11 0.06,-0.03 0.00,0.05 -0.07,0.11 -0.16,0.17 -0.26,0.20 -0.36,0.24 -0.47,0.23 -0.58,0.23 -0.68,0.19 -0.78,0.16 -0.86,0.09 -0.94,0.02 -1.00,-0.05 -1.06,-0.14 -1.08,-0.25 -1.11,-0.35 -1.10,-0.46 -1.09,-0.56 -1.05,-0.66 -1.01,-0.76 -0.94,-0.84 -0.86,-0.92 -0.77,-0.97 -0.68,-1.02 -0.58,-1.04 -0.47,-1.06 -0.37,-1.05 -0.26,-1.03 -0.17,-0.99 -0.07,-0.94 -0.00,-0.86 0.07,-0.79 0.12,-0.69 0.16,-0.60 0.18,-0.49 0.19,-0.39 0.17,-0.28 0.15,-0.18 0.10,-0.09 0.05,0.00 -0.02,0.07 -0.10,0.14 -0.20,0.18 -0.29,0.22 -0.40,0.23 -0.51,0.24 -0.61,0.21 -0.71,0.19 -0.80,0.13 -0.89,0.07 -0.89,0.07 -0.89,0.07 -0.10,-0.07 0.68,-0.22 0.70,-0.14 0.71,-0.05 0.71,0.02 0.71,0.11 0.68,0.19 0.66,0.28 0.62,0.35 0.57,0.43 0.51,0.49 0.45,0.55 0.38,0.60 0.30,0.65 0.22,0.67 0.14,0.70 0.05,0.71 -0.02,0.72 -0.11,0.70 -0.20,0.69 -0.28,0.65 -0.36,0.62 -0.43,0.57 -0.50,0.52 -0.55,0.45 -0.60,0.38 -0.64,0.30 -0.68,0.22 -0.68,0.22 L -0.68,0.22 Z"/></g></svg>